<?xml version="1.0" encoding="UTF-8"?>
<!-- Generated by Pixelmator Pro 3.6.18 -->
<svg width="466" height="72" viewBox="0 0 466 72" xmlns="http://www.w3.org/2000/svg">
    <path id="Discord-Logo-White" fill="#ffffff" stroke="none" d="M -0.160294 3.3144 L 37.535706 3.3144 C 46.621399 3.3144 54.307907 4.732002 60.595093 7.567299 C 66.383698 10.0009 71.298996 14.1315 74.6931 19.414597 C 77.870407 24.633598 79.498596 30.648399 79.387802 36.7575 C 79.457588 42.894699 77.766006 48.9231 74.513504 54.127998 C 70.885406 59.626404 65.697205 63.915398 59.614594 66.444801 C 52.949905 69.482597 44.688095 70.996902 34.829193 70.987602 L -0.1604 70.987602 L -0.1604 3.3144 Z M 34.442596 53.769001 C 40.564194 53.769001 45.268097 52.240898 48.554398 49.1847 C 51.925598 45.915501 53.504898 41.462502 53.483902 36.660801 C 53.501911 32.215401 52.103699 28.068901 49.093002 24.924 C 46.147293 21.996704 41.714905 20.528397 35.795807 20.519196 L 24.003693 20.519196 L 24.003693 53.769001 Z M 135.835114 70.877197 C 130.862 69.631104 126.104706 67.643402 121.723297 64.981201 L 121.723297 48.936298 C 125.548492 51.718498 129.855499 53.769001 134.426697 54.9842 C 139.427399 56.510002 144.622192 57.305199 149.850311 57.345398 C 151.654694 57.441711 153.457489 57.130203 155.125 56.434097 C 156.3125 55.8265 156.906189 55.053299 156.906189 54.252403 C 156.931885 53.3479 156.582001 52.473202 155.939606 51.835999 C 154.8367 50.987701 153.542206 50.4235 152.170013 50.192799 L 140.571289 47.583099 C 133.924988 46.036598 129.207306 43.896301 126.418091 41.162399 C 123.587097 38.306999 122.08429 34.394699 122.275696 30.3783 C 122.229095 26.778198 123.540497 23.292599 125.948608 20.615997 C 128.803711 17.595802 132.404205 15.381203 136.387512 14.195297 C 141.513489 12.584099 146.866913 11.814697 152.239105 11.917 C 157.254089 11.869904 162.255188 12.454399 167.124115 13.656799 C 171.056885 14.5886 174.833588 16.086304 178.336212 18.102997 L 178.336212 33.291801 C 175.051514 31.386101 171.520386 29.9412 167.842102 28.997501 C 163.856812 27.928902 159.747986 27.3904 155.622009 27.395802 C 149.564911 27.395802 146.536285 28.4268 146.536285 30.4888 C 146.515686 31.427601 147.059814 32.2873 147.917114 32.670502 C 149.571991 33.3741 151.306 33.874901 153.081299 34.1618 L 162.746887 35.9016 C 169.024994 37.006199 173.705902 38.9394 176.789703 41.701 C 179.873505 44.462601 181.420013 48.503799 181.429199 53.824501 C 181.529099 59.517799 178.601593 64.8368 173.738098 67.798203 C 168.647614 71.213402 161.379913 72.916397 151.935211 72.907204 C 146.504089 72.915604 141.094086 72.233498 135.834991 70.877403 Z M 204.2677 68.847397 C 199.100189 66.473 194.744904 62.6315 191.743805 57.801003 C 188.944397 53.0639 187.510712 47.644402 187.60141 42.1427 C 187.518005 36.644299 189.028687 31.239399 191.950897 26.581001 C 195.065613 21.826302 199.499603 18.083405 204.709503 15.810699 C 211.044098 13.050499 217.906494 11.711998 224.813995 11.889198 C 234.479614 11.889198 242.502106 13.918999 248.881409 17.9785 L 248.881409 35.694199 C 246.454498 34.062698 243.803192 32.7929 241.010803 31.924599 C 237.884796 30.937801 234.623108 30.448502 231.345215 30.4748 C 225.352509 30.4748 220.662415 31.570202 217.274811 33.761101 C 212.513611 36.4184 210.808014 42.432301 213.465302 47.193501 C 214.331085 48.744801 215.599487 50.033798 217.136688 50.9245 C 220.423004 53.143002 225.191406 54.252197 231.441803 54.252197 C 234.668091 54.259895 237.877991 53.794701 240.969299 52.871399 C 243.789001 52.062901 246.497589 50.908001 249.033203 49.433201 L 249.033203 66.555199 C 241.561798 70.911301 233.03241 73.118896 224.385803 72.934502 C 217.455902 73.123596 210.574402 71.725601 204.267609 68.847298 Z M 272.949005 68.847397 C 267.723511 66.461304 263.291107 62.627899 260.176605 57.801003 C 257.241486 53.0751 255.718109 47.608799 255.785706 42.046001 C 255.691925 36.549099 257.219086 31.146301 260.176605 26.511902 C 263.307587 21.807701 267.720795 18.0989 272.893799 15.824501 C 285.600494 10.669205 299.816193 10.669205 312.522888 15.824501 C 317.675507 18.081604 322.070709 21.772202 325.184906 26.456699 C 328.122589 31.1082 329.634491 36.517799 329.534393 42.018398 C 329.602997 47.5756 328.094788 53.038399 325.184906 57.773399 C 322.104401 62.6036 317.692688 66.439903 312.481506 68.819801 C 299.859894 74.232597 285.570709 74.232597 272.949097 68.819801 L 272.949097 68.847404 Z M 302.318695 51.6978 C 304.732391 49.2061 306.0112 45.828999 305.853607 42.363602 C 306.0224 38.9291 304.739594 35.581902 302.318695 33.139801 C 299.694611 30.733299 296.207397 29.492901 292.653107 29.701599 C 289.101898 29.514801 285.622986 30.752399 282.987488 33.139801 C 280.576111 35.587002 279.299194 38.931999 279.466492 42.363602 C 279.310089 45.826302 280.583099 49.201199 282.987488 51.6978 C 285.598206 54.134399 289.087006 55.405296 292.653107 55.218803 C 296.222412 55.426498 299.719299 54.152603 302.318695 51.6978 Z M 387.624695 15.4655 L 387.624695 36.370899 C 384.739197 34.648998 381.412903 33.808998 378.055725 33.954498 C 372.905273 33.954498 368.928589 35.528599 366.166992 38.6492 C 363.405396 41.769798 362.024597 46.616402 362.024597 53.189098 L 362.024597 70.9739 L 338.343811 70.9739 L 338.343811 14.429901 L 361.541321 14.429901 L 361.541321 32.380402 C 362.830017 25.8078 364.910522 20.961098 367.782471 17.8405 C 370.600525 14.734901 374.693298 13.103203 378.828918 13.145798 C 381.893311 13.139297 384.975098 13.866501 387.624695 15.4655 Z M 466.302979 1.381302 L 466.302979 70.973801 L 442.622192 70.973801 L 442.622192 58.270401 C 440.836304 62.7929 437.627991 66.6119 433.481323 69.1511 C 428.903625 71.759201 423.696899 73.058403 418.430481 72.906898 C 413.47467 73.022301 408.596497 71.662102 404.415283 68.999199 C 400.366211 66.368797 397.140686 62.650398 395.108704 58.270401 C 392.891602 53.4356 391.787415 48.165001 391.877625 42.846802 C 391.721619 37.332802 392.896179 31.8624 395.302002 26.898499 C 397.513428 22.351799 400.964478 18.522598 405.257629 15.852097 C 409.670715 13.178497 414.748779 11.804901 419.907898 11.889198 C 431.175293 11.889198 438.746582 16.786499 442.62207 26.581001 L 442.62207 1.381302 L 466.302917 1.381302 Z M 439.142517 51.366402 C 441.582825 48.9645 442.900818 45.647202 442.773987 42.225498 C 442.877686 38.904999 441.55603 35.698799 439.142517 33.416 C 433.5578 28.869202 425.547791 28.869202 419.963074 33.416 C 417.556396 35.7509 416.256104 38.9991 416.38678 42.3498 C 416.264099 45.731602 417.57843 49.007301 420.004517 51.366501 C 422.567322 53.748798 425.981689 54.9981 429.476807 54.832298 C 433.034424 55.028801 436.520325 53.7789 439.142395 51.366501 Z M 99.354187 -0.758896 C 105.87439 -0.758896 111.160088 3.988899 111.160088 9.845703 C 111.160088 15.702499 105.87439 20.450302 99.354187 20.450302 C 92.834007 20.450302 87.548309 15.702499 87.548309 9.845703 C 87.548309 3.988899 92.834007 -0.758896 99.354187 -0.758896 Z M 87.534485 27.7547 C 95.0896 30.93 103.605011 30.93 111.160088 27.7547 L 111.160088 71.277603 L 87.534485 71.277603 Z"/>
</svg>
